<svg id="Layer_1" data-name="Layer 1" xmlns="http://www.w3.org/2000/svg" viewBox="0 0 128 128"><defs><style>.cls-1{fill:#333;}.cls-2{fill:#ff931e;}.cls-3{fill:#fff;}</style></defs><title>Artboard 1</title><rect class="cls-1" width="128" height="128" rx="12" ry="12"/><polygon class="cls-2" points="65.75 43.75 16.81 43.75 47.31 110.75 65.75 110.75 65.75 43.75"/><polygon class="cls-2" points="16.73 43.75 33.38 16.75 46.75 16.75 46.75 43.75 16.73 43.75"/><polygon class="cls-3" points="24.84 44.61 34.45 20.75 43.75 20.75 43.75 44.24 29.96 49.19 24.84 44.61"/><polygon class="cls-3" points="62.75 93.75 73.87 93.75 66.87 103.75 62.75 103.75 62.75 93.75"/><polygon class="cls-3" points="63.75 93.75 53.41 93.75 60.41 103.75 63.75 103.75 63.75 93.75"/><circle class="cls-3" cx="47.67" cy="66.16" r="3.96"/><polygon class="cls-2" points="60.75 43.75 110.29 43.75 79.8 110.75 60.75 110.75 60.75 43.75"/><polygon class="cls-2" points="110.37 43.75 93.72 16.75 80.75 16.75 80.75 43.75 110.37 43.75"/><polygon class="cls-3" points="102.27 44.61 92.66 20.75 83.75 20.75 83.75 44.24 97.34 49.19 102.27 44.61"/><polygon class="cls-3" points="63.75 93.75 53.23 93.75 60.24 103.75 63.75 103.75 63.75 93.75"/><polygon class="cls-3" points="62.75 93.75 73.69 93.75 66.69 103.75 62.75 103.75 62.75 93.75"/><circle class="cls-3" cx="79.44" cy="66.16" r="3.96"/></svg>